M48
;Layer_Color=9474304
;FILE_FORMAT=4:4
METRIC,LZ
;TYPE=PLATED
T1F00S00C0.7110
T2F00S00C0.7112
T3F00S00C0.8000
T4F00S00C0.9000
%
T01
X0007Y000848
Y001102
X0009159Y000975
X000977Y0016845
X000723
X00085Y001875
T02
X0016Y001525
Y002475
X001275Y002325
X00125Y002675
X00055
X00025Y0027
Y003075
X000325Y002325
X0008
X0004484Y001875
X0004Y001525
Y000675
X00059368Y00053132
X00125Y000625
Y001125
Y001575
Y003625
X00055
X00025Y00365
X000625Y003925
X000625Y004225
X001575
X001575Y003925
T03
X0009Y002711
Y003639
T04
X0016Y000675
Y000929
Y002875
Y003129
X0002Y002003
Y001749
Y001495
Y001241
Y000987
Y000733
Y000479
Y000225
X000642
X000896
X00115
X001404
X00025Y003975
Y004229
M30
