G04*
G04 #@! TF.GenerationSoftware,Altium Limited,Altium Designer,21.6.4 (81)*
G04*
G04 Layer_Physical_Order=2*
G04 Layer_Color=16711680*
%FSLAX44Y44*%
%MOMM*%
G71*
G04*
G04 #@! TF.SameCoordinates,B57D2F8B-4A7A-4E61-A793-557B7A210965*
G04*
G04*
G04 #@! TF.FilePolarity,Positive*
G04*
G01*
G75*
%ADD12C,0.2540*%
%ADD13C,1.5000*%
%ADD14R,1.5000X1.5000*%
%ADD15C,1.3080*%
%ADD16R,1.3080X1.3080*%
%ADD17C,1.2700*%
%ADD18R,1.5000X1.5000*%
G36*
X180000Y0D02*
X0D01*
Y440000D01*
X180000D01*
Y0D01*
D02*
G37*
%LPC*%
G36*
X26322Y432940D02*
X26270D01*
Y424170D01*
X35040D01*
Y424222D01*
X34356Y426775D01*
X33034Y429065D01*
X31165Y430934D01*
X28875Y432256D01*
X26322Y432940D01*
D02*
G37*
G36*
X23730D02*
X23678D01*
X21125Y432256D01*
X18835Y430934D01*
X16966Y429065D01*
X15644Y426775D01*
X14960Y424222D01*
Y424170D01*
X23730D01*
Y432940D01*
D02*
G37*
G36*
X158770Y431363D02*
Y423770D01*
X166363D01*
X165784Y425931D01*
X164614Y427959D01*
X162959Y429614D01*
X160931Y430784D01*
X158770Y431363D01*
D02*
G37*
G36*
X156230D02*
X154069Y430784D01*
X152041Y429614D01*
X150386Y427959D01*
X149216Y425931D01*
X148637Y423770D01*
X156230D01*
Y431363D01*
D02*
G37*
G36*
X166363Y421230D02*
X158770D01*
Y413637D01*
X160931Y414216D01*
X162959Y415386D01*
X164614Y417041D01*
X165784Y419069D01*
X166363Y421230D01*
D02*
G37*
G36*
X156230D02*
X148637D01*
X149216Y419069D01*
X150386Y417041D01*
X152041Y415386D01*
X154069Y414216D01*
X156230Y413637D01*
Y421230D01*
D02*
G37*
G36*
X63670Y431390D02*
X61330D01*
X59069Y430784D01*
X57041Y429614D01*
X55386Y427959D01*
X54216Y425931D01*
X53610Y423670D01*
Y421330D01*
X54216Y419069D01*
X55386Y417041D01*
X57041Y415386D01*
X59069Y414216D01*
X61330Y413610D01*
X63670D01*
X65931Y414216D01*
X67959Y415386D01*
X69614Y417041D01*
X70784Y419069D01*
X71390Y421330D01*
Y423670D01*
X70784Y425931D01*
X69614Y427959D01*
X67959Y429614D01*
X65931Y430784D01*
X63670Y431390D01*
D02*
G37*
G36*
X35040Y421630D02*
X26270D01*
Y412860D01*
X26322D01*
X28875Y413544D01*
X31165Y414866D01*
X33034Y416735D01*
X34356Y419025D01*
X35040Y421578D01*
Y421630D01*
D02*
G37*
G36*
X23730D02*
X14960D01*
Y421578D01*
X15644Y419025D01*
X16966Y416735D01*
X18835Y414866D01*
X21125Y413544D01*
X23678Y412860D01*
X23730D01*
Y421630D01*
D02*
G37*
G36*
X158770Y401363D02*
Y393770D01*
X166363D01*
X165784Y395931D01*
X164614Y397959D01*
X162959Y399614D01*
X160931Y400784D01*
X158770Y401363D01*
D02*
G37*
G36*
X156230D02*
X154069Y400784D01*
X152041Y399614D01*
X150386Y397959D01*
X149216Y395931D01*
X148637Y393770D01*
X156230D01*
Y401363D01*
D02*
G37*
G36*
X35040Y407540D02*
X14960D01*
Y387460D01*
X35040D01*
Y407540D01*
D02*
G37*
G36*
X166363Y391230D02*
X158770D01*
Y383637D01*
X160931Y384216D01*
X162959Y385386D01*
X164614Y387041D01*
X165784Y389069D01*
X166363Y391230D01*
D02*
G37*
G36*
X156230D02*
X148637D01*
X149216Y389069D01*
X150386Y387041D01*
X152041Y385386D01*
X154069Y384216D01*
X156230Y383637D01*
Y391230D01*
D02*
G37*
G36*
X63670Y401390D02*
X61330D01*
X59069Y400784D01*
X57041Y399614D01*
X55386Y397959D01*
X54216Y395931D01*
X53610Y393670D01*
Y391330D01*
X54216Y389069D01*
X55386Y387041D01*
X57041Y385386D01*
X59069Y384216D01*
X61330Y383610D01*
X63670D01*
X65931Y384216D01*
X67959Y385386D01*
X69614Y387041D01*
X70784Y389069D01*
X71390Y391330D01*
Y393670D01*
X70784Y395931D01*
X69614Y397959D01*
X67959Y399614D01*
X65931Y400784D01*
X63670Y401390D01*
D02*
G37*
G36*
X26170Y373890D02*
X23830D01*
X21569Y373284D01*
X19541Y372114D01*
X17886Y370459D01*
X16716Y368431D01*
X16110Y366170D01*
Y363830D01*
X16716Y361569D01*
X17886Y359541D01*
X19541Y357886D01*
X21569Y356716D01*
X23830Y356110D01*
X26170D01*
X28431Y356716D01*
X30459Y357886D01*
X32114Y359541D01*
X33284Y361569D01*
X33890Y363830D01*
Y366170D01*
X33284Y368431D01*
X32114Y370459D01*
X30459Y372114D01*
X28431Y373284D01*
X26170Y373890D01*
D02*
G37*
G36*
X91195Y372980D02*
X88805D01*
X86495Y372361D01*
X84425Y371166D01*
X82734Y369475D01*
X81539Y367405D01*
X80920Y365095D01*
Y362705D01*
X81539Y360395D01*
X82734Y358325D01*
X84425Y356634D01*
X86495Y355439D01*
X88805Y354820D01*
X91195D01*
X93505Y355439D01*
X95575Y356634D01*
X97266Y358325D01*
X98461Y360395D01*
X99080Y362705D01*
Y365095D01*
X98461Y367405D01*
X97266Y369475D01*
X95575Y371166D01*
X93505Y372361D01*
X91195Y372980D01*
D02*
G37*
G36*
X126170Y371390D02*
X123830D01*
X121569Y370784D01*
X119541Y369614D01*
X117886Y367959D01*
X116716Y365931D01*
X116110Y363670D01*
Y361330D01*
X116716Y359069D01*
X117886Y357041D01*
X119541Y355386D01*
X121569Y354216D01*
X123830Y353610D01*
X126170D01*
X128431Y354216D01*
X130459Y355386D01*
X132114Y357041D01*
X133284Y359069D01*
X133890Y361330D01*
Y363670D01*
X133284Y365931D01*
X132114Y367959D01*
X130459Y369614D01*
X128431Y370784D01*
X126170Y371390D01*
D02*
G37*
G36*
X170040Y322940D02*
X149960D01*
Y302860D01*
X170040D01*
Y322940D01*
D02*
G37*
G36*
X26170Y316390D02*
X23830D01*
X21569Y315784D01*
X19541Y314614D01*
X17886Y312959D01*
X16716Y310931D01*
X16110Y308670D01*
Y306330D01*
X16580Y304574D01*
X5943Y293937D01*
X5101Y292677D01*
X4805Y291190D01*
Y144815D01*
X5101Y143329D01*
X5943Y142068D01*
X14211Y133801D01*
Y132351D01*
X13835Y132134D01*
X11966Y130265D01*
X10644Y127975D01*
X9960Y125422D01*
Y122778D01*
X10644Y120225D01*
X11966Y117935D01*
X13835Y116066D01*
X16125Y114744D01*
X18678Y114060D01*
X21322D01*
X23875Y114744D01*
X26165Y116066D01*
X28034Y117935D01*
X29356Y120225D01*
X30040Y122778D01*
Y125422D01*
X29356Y127975D01*
X28034Y130265D01*
X26165Y132134D01*
X23875Y133456D01*
X21980Y133964D01*
Y135410D01*
X21684Y136897D01*
X20842Y138157D01*
X20712Y138287D01*
X21198Y139460D01*
X21322D01*
X23875Y140144D01*
X26165Y141466D01*
X28034Y143335D01*
X29356Y145625D01*
X30040Y148178D01*
Y150314D01*
X30040Y150416D01*
X31310Y150583D01*
X31330Y150508D01*
X31716Y149069D01*
X32886Y147041D01*
X34541Y145386D01*
X36115Y144478D01*
Y75522D01*
X34541Y74614D01*
X32886Y72959D01*
X31716Y70931D01*
X31110Y68670D01*
Y66330D01*
X31716Y64069D01*
X32886Y62041D01*
X34541Y60386D01*
X36569Y59216D01*
X38830Y58610D01*
X41170D01*
X43431Y59216D01*
X45459Y60386D01*
X47114Y62041D01*
X48284Y64069D01*
X48890Y66330D01*
Y68670D01*
X48284Y70931D01*
X47114Y72959D01*
X45459Y74614D01*
X43885Y75522D01*
Y144478D01*
X45459Y145386D01*
X45667Y145595D01*
X46313Y145399D01*
X46957Y145089D01*
X47704Y143972D01*
X51923Y139753D01*
X53183Y138911D01*
X54669Y138615D01*
X118391D01*
X121115Y135891D01*
Y120522D01*
X119541Y119614D01*
X117886Y117959D01*
X116716Y115931D01*
X116110Y113670D01*
Y111330D01*
X116716Y109069D01*
X117886Y107041D01*
X119541Y105386D01*
X121569Y104216D01*
X123830Y103610D01*
X126170D01*
X128431Y104216D01*
X130459Y105386D01*
X132114Y107041D01*
X133284Y109069D01*
X133890Y111330D01*
Y113670D01*
X133284Y115931D01*
X132114Y117959D01*
X130459Y119614D01*
X128885Y120522D01*
Y137500D01*
X128589Y138987D01*
X127747Y140247D01*
X122747Y145247D01*
X121487Y146089D01*
X120000Y146385D01*
X56279D01*
X54335Y148328D01*
Y161088D01*
X54040Y162574D01*
X53197Y163835D01*
X39385Y177647D01*
X38758Y178066D01*
X38125Y178489D01*
X38125Y178489D01*
X38125Y178489D01*
X36639Y178785D01*
X35861Y178785D01*
X29350D01*
X28034Y181065D01*
X26165Y182934D01*
X23875Y184256D01*
X21322Y184940D01*
X18678D01*
X16125Y184256D01*
X13835Y182934D01*
X13748Y182847D01*
X12575Y183333D01*
Y191867D01*
X13748Y192353D01*
X13835Y192266D01*
X16125Y190944D01*
X18678Y190260D01*
X21322D01*
X23875Y190944D01*
X26165Y192266D01*
X28034Y194135D01*
X29356Y196425D01*
X30040Y198978D01*
Y201622D01*
X29356Y204175D01*
X28034Y206465D01*
X26165Y208334D01*
X23875Y209656D01*
X21322Y210340D01*
X18678D01*
X16125Y209656D01*
X13835Y208334D01*
X13748Y208247D01*
X12575Y208733D01*
Y289581D01*
X22074Y299080D01*
X23830Y298610D01*
X26170D01*
X28431Y299216D01*
X30459Y300386D01*
X32114Y302041D01*
X33284Y304069D01*
X33890Y306330D01*
Y308670D01*
X33284Y310931D01*
X32114Y312959D01*
X30459Y314614D01*
X28431Y315784D01*
X26170Y316390D01*
D02*
G37*
G36*
X161322Y297540D02*
X161270D01*
Y288770D01*
X170040D01*
Y288822D01*
X169356Y291375D01*
X168034Y293665D01*
X166165Y295534D01*
X163875Y296856D01*
X161322Y297540D01*
D02*
G37*
G36*
X158730D02*
X158678D01*
X156125Y296856D01*
X153835Y295534D01*
X151966Y293665D01*
X150644Y291375D01*
X149960Y288822D01*
Y288770D01*
X158730D01*
Y297540D01*
D02*
G37*
G36*
X170040Y286230D02*
X161270D01*
Y277460D01*
X161322D01*
X163875Y278144D01*
X166165Y279466D01*
X168034Y281335D01*
X169356Y283625D01*
X170040Y286178D01*
Y286230D01*
D02*
G37*
G36*
X158730D02*
X149960D01*
Y286178D01*
X150644Y283625D01*
X151966Y281335D01*
X153835Y279466D01*
X156125Y278144D01*
X158678Y277460D01*
X158730D01*
Y286230D01*
D02*
G37*
G36*
X99080Y280180D02*
X80920D01*
Y262020D01*
X99080D01*
Y280180D01*
D02*
G37*
G36*
X26170Y278890D02*
X23830D01*
X21569Y278284D01*
X19541Y277114D01*
X17886Y275459D01*
X16716Y273431D01*
X16110Y271170D01*
Y268830D01*
X16716Y266569D01*
X17886Y264541D01*
X19541Y262886D01*
X21569Y261716D01*
X23830Y261110D01*
X26170D01*
X28431Y261716D01*
X30459Y262886D01*
X32114Y264541D01*
X33284Y266569D01*
X33890Y268830D01*
Y271170D01*
X33284Y273431D01*
X32114Y275459D01*
X30459Y277114D01*
X28431Y278284D01*
X26170Y278890D01*
D02*
G37*
G36*
X126170Y276390D02*
X123830D01*
X121569Y275784D01*
X119541Y274614D01*
X117886Y272959D01*
X116716Y270931D01*
X116110Y268670D01*
Y266330D01*
X116716Y264069D01*
X117886Y262041D01*
X119541Y260386D01*
X121569Y259216D01*
X123830Y258610D01*
X126170D01*
X128431Y259216D01*
X130459Y260386D01*
X132114Y262041D01*
X133284Y264069D01*
X133890Y266330D01*
Y268670D01*
X133284Y270931D01*
X132114Y272959D01*
X130459Y274614D01*
X128431Y275784D01*
X126170Y276390D01*
D02*
G37*
G36*
X161270Y256363D02*
Y248770D01*
X168863D01*
X168284Y250931D01*
X167114Y252959D01*
X165459Y254614D01*
X163431Y255784D01*
X161270Y256363D01*
D02*
G37*
G36*
X158730D02*
X156569Y255784D01*
X154541Y254614D01*
X152886Y252959D01*
X151716Y250931D01*
X151137Y248770D01*
X158730D01*
Y256363D01*
D02*
G37*
G36*
X168863Y246230D02*
X161270D01*
Y238637D01*
X163431Y239216D01*
X165459Y240386D01*
X167114Y242041D01*
X168284Y244069D01*
X168863Y246230D01*
D02*
G37*
G36*
X158730D02*
X151137D01*
X151716Y244069D01*
X152886Y242041D01*
X154541Y240386D01*
X156569Y239216D01*
X158730Y238637D01*
Y246230D01*
D02*
G37*
G36*
X128670Y241390D02*
X126330D01*
X124069Y240784D01*
X122041Y239614D01*
X120386Y237959D01*
X119216Y235931D01*
X118610Y233670D01*
Y231330D01*
X119216Y229069D01*
X120386Y227041D01*
X122041Y225386D01*
X124069Y224216D01*
X126330Y223610D01*
X128670D01*
X130931Y224216D01*
X132959Y225386D01*
X134614Y227041D01*
X135784Y229069D01*
X136390Y231330D01*
Y233670D01*
X135784Y235931D01*
X134614Y237959D01*
X132959Y239614D01*
X130931Y240784D01*
X128670Y241390D01*
D02*
G37*
G36*
X56170Y371390D02*
X53830D01*
X51569Y370784D01*
X49541Y369614D01*
X47886Y367959D01*
X46716Y365931D01*
X46110Y363670D01*
Y361330D01*
X46716Y359069D01*
X47886Y357041D01*
X49541Y355386D01*
X51115Y354478D01*
Y299109D01*
X42093Y290087D01*
X41251Y288827D01*
X40955Y287340D01*
Y238175D01*
X39685Y237835D01*
X39614Y237959D01*
X37959Y239614D01*
X35931Y240784D01*
X33670Y241390D01*
X31330D01*
X29069Y240784D01*
X27041Y239614D01*
X25386Y237959D01*
X24216Y235931D01*
X23610Y233670D01*
Y231330D01*
X24216Y229069D01*
X25386Y227041D01*
X27041Y225386D01*
X29069Y224216D01*
X31330Y223610D01*
X33670D01*
X35931Y224216D01*
X37959Y225386D01*
X39614Y227041D01*
X39685Y227165D01*
X40955Y226825D01*
Y195522D01*
X39381Y194614D01*
X37726Y192959D01*
X36556Y190931D01*
X35950Y188670D01*
Y186330D01*
X36556Y184069D01*
X37726Y182041D01*
X39381Y180386D01*
X41409Y179216D01*
X43670Y178610D01*
X46010D01*
X48271Y179216D01*
X50299Y180386D01*
X51954Y182041D01*
X53124Y184069D01*
X53730Y186330D01*
Y188670D01*
X53124Y190931D01*
X51954Y192959D01*
X50299Y194614D01*
X48725Y195522D01*
Y259523D01*
X49995Y260124D01*
X51569Y259216D01*
X53830Y258610D01*
X56170D01*
X58431Y259216D01*
X59610Y259896D01*
X63415Y256091D01*
Y217018D01*
X63711Y215532D01*
X64553Y214272D01*
X68335Y210489D01*
Y176426D01*
X66841Y175564D01*
X65186Y173909D01*
X64016Y171881D01*
X63410Y169620D01*
Y167280D01*
X64016Y165019D01*
X65186Y162991D01*
X66841Y161336D01*
X68869Y160166D01*
X71130Y159560D01*
X73470D01*
X75731Y160166D01*
X77759Y161336D01*
X79414Y162991D01*
X80584Y165019D01*
X81190Y167280D01*
Y169620D01*
X80584Y171881D01*
X79414Y173909D01*
X77759Y175564D01*
X76105Y176519D01*
Y182587D01*
X77375Y182927D01*
X77886Y182041D01*
X79541Y180386D01*
X81569Y179216D01*
X83830Y178610D01*
X86170D01*
X88431Y179216D01*
X90459Y180386D01*
X92114Y182041D01*
X93284Y184069D01*
X93890Y186330D01*
Y188670D01*
X93284Y190931D01*
X92114Y192959D01*
X90459Y194614D01*
X88431Y195784D01*
X86170Y196390D01*
X83885D01*
Y224478D01*
X85459Y225386D01*
X87114Y227041D01*
X88284Y229069D01*
X88890Y231330D01*
Y233670D01*
X88284Y235931D01*
X87114Y237959D01*
X85459Y239614D01*
X83431Y240784D01*
X81170Y241390D01*
X78830D01*
X76569Y240784D01*
X74541Y239614D01*
X72886Y237959D01*
X72455Y237211D01*
X71185Y237551D01*
Y257700D01*
X70889Y259187D01*
X70047Y260447D01*
X63890Y266604D01*
Y268670D01*
X63284Y270931D01*
X62114Y272959D01*
X60459Y274614D01*
X58431Y275784D01*
X56170Y276390D01*
X53830D01*
X51569Y275784D01*
X49995Y274875D01*
X48725Y275477D01*
Y285731D01*
X57747Y294753D01*
X58589Y296013D01*
X58885Y297500D01*
Y354478D01*
X60459Y355386D01*
X62114Y357041D01*
X63284Y359069D01*
X63890Y361330D01*
Y363670D01*
X63284Y365931D01*
X62114Y367959D01*
X60459Y369614D01*
X58431Y370784D01*
X56170Y371390D01*
D02*
G37*
G36*
X98870Y177340D02*
X96530D01*
X94269Y176734D01*
X92241Y175564D01*
X90586Y173909D01*
X89416Y171881D01*
X88810Y169620D01*
Y167280D01*
X89416Y165019D01*
X90586Y162991D01*
X92241Y161336D01*
X94269Y160166D01*
X96530Y159560D01*
X98870D01*
X101131Y160166D01*
X103159Y161336D01*
X104814Y162991D01*
X105984Y165019D01*
X106590Y167280D01*
Y169620D01*
X105984Y171881D01*
X104814Y173909D01*
X103159Y175564D01*
X101131Y176734D01*
X98870Y177340D01*
D02*
G37*
G36*
X126170Y166390D02*
X123830D01*
X121569Y165784D01*
X119541Y164614D01*
X117886Y162959D01*
X116716Y160931D01*
X116110Y158670D01*
Y156330D01*
X116716Y154069D01*
X117886Y152041D01*
X119541Y150386D01*
X121569Y149216D01*
X123830Y148610D01*
X126170D01*
X128431Y149216D01*
X130459Y150386D01*
X132114Y152041D01*
X133284Y154069D01*
X133890Y156330D01*
Y158670D01*
X133284Y160931D01*
X132114Y162959D01*
X130459Y164614D01*
X128431Y165784D01*
X126170Y166390D01*
D02*
G37*
G36*
X161170Y161390D02*
X158830D01*
X156569Y160784D01*
X154541Y159614D01*
X152886Y157959D01*
X151716Y155931D01*
X151110Y153670D01*
Y151330D01*
X151716Y149069D01*
X152886Y147041D01*
X154541Y145386D01*
X156569Y144216D01*
X158830Y143610D01*
X161170D01*
X163431Y144216D01*
X165459Y145386D01*
X167114Y147041D01*
X168284Y149069D01*
X168890Y151330D01*
Y153670D01*
X168284Y155931D01*
X167114Y157959D01*
X165459Y159614D01*
X163431Y160784D01*
X161170Y161390D01*
D02*
G37*
G36*
X71270Y119063D02*
Y111470D01*
X78863D01*
X78284Y113631D01*
X77114Y115659D01*
X75459Y117314D01*
X73431Y118484D01*
X71270Y119063D01*
D02*
G37*
G36*
X68730D02*
X66569Y118484D01*
X64541Y117314D01*
X62886Y115659D01*
X61716Y113631D01*
X61137Y111470D01*
X68730D01*
Y119063D01*
D02*
G37*
G36*
Y108930D02*
X61137D01*
X61716Y106769D01*
X62886Y104741D01*
X64541Y103086D01*
X66569Y101916D01*
X68730Y101337D01*
Y108930D01*
D02*
G37*
G36*
X78863D02*
X71270D01*
Y101337D01*
X73431Y101916D01*
X75459Y103086D01*
X77114Y104741D01*
X78284Y106769D01*
X78863Y108930D01*
D02*
G37*
G36*
X161322Y102940D02*
X161270D01*
Y94170D01*
X170040D01*
Y94222D01*
X169356Y96775D01*
X168034Y99065D01*
X166165Y100934D01*
X163875Y102256D01*
X161322Y102940D01*
D02*
G37*
G36*
X158730D02*
X158678D01*
X156125Y102256D01*
X153835Y100934D01*
X152455Y99554D01*
X152140Y99491D01*
X150879Y98649D01*
X150037Y97389D01*
X149742Y95902D01*
X150027Y94470D01*
X149960Y94222D01*
Y94170D01*
X158730D01*
Y102940D01*
D02*
G37*
G36*
X21322Y108740D02*
X18678D01*
X16125Y108056D01*
X13835Y106734D01*
X11966Y104865D01*
X10644Y102575D01*
X9960Y100022D01*
Y97378D01*
X10644Y94825D01*
X11966Y92535D01*
X13835Y90666D01*
X16125Y89344D01*
X18678Y88660D01*
X21322D01*
X23875Y89344D01*
X26165Y90666D01*
X28034Y92535D01*
X29356Y94825D01*
X30040Y97378D01*
Y100022D01*
X29356Y102575D01*
X28034Y104865D01*
X26165Y106734D01*
X23875Y108056D01*
X21322Y108740D01*
D02*
G37*
G36*
X92760Y106390D02*
X90420D01*
X88159Y105784D01*
X86131Y104614D01*
X84476Y102959D01*
X83306Y100931D01*
X82700Y98670D01*
Y96330D01*
X83306Y94069D01*
X84476Y92041D01*
X86131Y90386D01*
X88159Y89216D01*
X90420Y88610D01*
X92760D01*
X95021Y89216D01*
X97049Y90386D01*
X98704Y92041D01*
X99874Y94069D01*
X100480Y96330D01*
Y98670D01*
X99874Y100931D01*
X98704Y102959D01*
X97049Y104614D01*
X95021Y105784D01*
X92760Y106390D01*
D02*
G37*
G36*
X170040Y91630D02*
X161270D01*
Y82860D01*
X161322D01*
X163875Y83544D01*
X166165Y84866D01*
X168034Y86735D01*
X169356Y89025D01*
X170040Y91578D01*
Y91630D01*
D02*
G37*
G36*
X158730D02*
X149960D01*
Y91578D01*
X150644Y89025D01*
X151966Y86735D01*
X153835Y84866D01*
X156125Y83544D01*
X158678Y82860D01*
X158730D01*
Y91630D01*
D02*
G37*
G36*
X21322Y83340D02*
X18678D01*
X16125Y82656D01*
X13835Y81334D01*
X11966Y79465D01*
X10644Y77175D01*
X9960Y74622D01*
Y71978D01*
X10644Y69425D01*
X11966Y67135D01*
X13835Y65266D01*
X16125Y63944D01*
X18678Y63260D01*
X21322D01*
X23875Y63944D01*
X26165Y65266D01*
X28034Y67135D01*
X29356Y69425D01*
X30040Y71978D01*
Y74622D01*
X29356Y77175D01*
X28034Y79465D01*
X26165Y81334D01*
X23875Y82656D01*
X21322Y83340D01*
D02*
G37*
G36*
X170040Y77540D02*
X149960D01*
Y57460D01*
X170040D01*
Y77540D01*
D02*
G37*
G36*
X126170Y71390D02*
X123830D01*
X121569Y70784D01*
X119541Y69614D01*
X117886Y67959D01*
X116716Y65931D01*
X116110Y63670D01*
Y61330D01*
X116716Y59069D01*
X117886Y57041D01*
X119541Y55386D01*
X121569Y54216D01*
X123830Y53610D01*
X126170D01*
X128431Y54216D01*
X130459Y55386D01*
X132114Y57041D01*
X133284Y59069D01*
X133890Y61330D01*
Y63670D01*
X133284Y65931D01*
X132114Y67959D01*
X130459Y69614D01*
X128431Y70784D01*
X126170Y71390D01*
D02*
G37*
G36*
X21322Y57940D02*
X21270D01*
Y49170D01*
X30040D01*
Y49222D01*
X29356Y51775D01*
X28034Y54065D01*
X26165Y55934D01*
X23875Y57256D01*
X21322Y57940D01*
D02*
G37*
G36*
X18730D02*
X18678D01*
X16125Y57256D01*
X13835Y55934D01*
X11966Y54065D01*
X10644Y51775D01*
X9960Y49222D01*
Y49170D01*
X18730D01*
Y57940D01*
D02*
G37*
G36*
X30040Y46630D02*
X21270D01*
Y37860D01*
X21322D01*
X23875Y38544D01*
X26165Y39866D01*
X28034Y41735D01*
X29356Y44025D01*
X30040Y46578D01*
Y46630D01*
D02*
G37*
G36*
X18730D02*
X9960D01*
Y46578D01*
X10644Y44025D01*
X11966Y41735D01*
X13835Y39866D01*
X16125Y38544D01*
X18678Y37860D01*
X18730D01*
Y46630D01*
D02*
G37*
G36*
X141722Y32540D02*
X139078D01*
X136525Y31856D01*
X134235Y30534D01*
X132366Y28665D01*
X131044Y26375D01*
X130360Y23822D01*
Y21178D01*
X131044Y18625D01*
X132366Y16335D01*
X134235Y14466D01*
X136525Y13144D01*
X139078Y12460D01*
X141722D01*
X144275Y13144D01*
X146565Y14466D01*
X148434Y16335D01*
X149756Y18625D01*
X150440Y21178D01*
Y23822D01*
X149756Y26375D01*
X148434Y28665D01*
X146565Y30534D01*
X144275Y31856D01*
X141722Y32540D01*
D02*
G37*
G36*
X116322D02*
X113678D01*
X111125Y31856D01*
X108835Y30534D01*
X106966Y28665D01*
X105644Y26375D01*
X104960Y23822D01*
Y21178D01*
X105644Y18625D01*
X106966Y16335D01*
X108835Y14466D01*
X111125Y13144D01*
X113678Y12460D01*
X116322D01*
X118875Y13144D01*
X121165Y14466D01*
X123034Y16335D01*
X124356Y18625D01*
X125040Y21178D01*
Y23822D01*
X124356Y26375D01*
X123034Y28665D01*
X121165Y30534D01*
X118875Y31856D01*
X116322Y32540D01*
D02*
G37*
G36*
X71170Y93690D02*
X68830D01*
X66569Y93084D01*
X64541Y91914D01*
X62886Y90259D01*
X61716Y88231D01*
X61110Y85970D01*
Y83630D01*
X61716Y81369D01*
X62886Y79341D01*
X64541Y77686D01*
X66569Y76516D01*
X67138Y76363D01*
X67405Y75019D01*
X68247Y73759D01*
X85715Y56291D01*
Y31850D01*
X83435Y30534D01*
X81566Y28665D01*
X80244Y26375D01*
X79560Y23822D01*
Y21178D01*
X80244Y18625D01*
X81566Y16335D01*
X83435Y14466D01*
X85725Y13144D01*
X88278Y12460D01*
X90922D01*
X93475Y13144D01*
X95765Y14466D01*
X97634Y16335D01*
X98956Y18625D01*
X99640Y21178D01*
Y23822D01*
X98956Y26375D01*
X97634Y28665D01*
X95765Y30534D01*
X93485Y31850D01*
Y57900D01*
X93189Y59387D01*
X92347Y60647D01*
X75441Y77553D01*
X75459Y77686D01*
X77114Y79341D01*
X78284Y81369D01*
X78890Y83630D01*
Y85970D01*
X78284Y88231D01*
X77114Y90259D01*
X75459Y91914D01*
X73431Y93084D01*
X71170Y93690D01*
D02*
G37*
G36*
X60539Y62022D02*
X58198D01*
X55937Y61416D01*
X53910Y60245D01*
X52255Y58590D01*
X51084Y56563D01*
X50478Y54302D01*
Y51961D01*
X51084Y49700D01*
X52255Y47673D01*
X53910Y46018D01*
X55937Y44847D01*
X58198Y44242D01*
X60015D01*
X60315Y43942D01*
Y32540D01*
X54160D01*
Y12460D01*
X74240D01*
Y32540D01*
X68085D01*
Y45551D01*
X67789Y47037D01*
X66947Y48298D01*
X66881Y48364D01*
X67653Y49700D01*
X68258Y51961D01*
Y54302D01*
X67653Y56563D01*
X66482Y58590D01*
X64827Y60245D01*
X62800Y61416D01*
X60539Y62022D01*
D02*
G37*
G36*
X30040Y32540D02*
X9960D01*
Y12460D01*
X30040D01*
Y32540D01*
D02*
G37*
%LPD*%
G36*
X44289Y161755D02*
X43510Y160739D01*
X43431Y160784D01*
X41170Y161390D01*
X38830D01*
X36569Y160784D01*
X34541Y159614D01*
X32886Y157959D01*
X31716Y155931D01*
X31110Y153670D01*
Y151838D01*
X31110Y151735D01*
X29840Y151568D01*
X29820Y151644D01*
X29356Y153375D01*
X28034Y155665D01*
X26165Y157534D01*
X23875Y158856D01*
X21322Y159540D01*
X18678D01*
X16125Y158856D01*
X13835Y157534D01*
X13748Y157447D01*
X12575Y157933D01*
Y166467D01*
X13748Y166953D01*
X13835Y166866D01*
X16125Y165544D01*
X18678Y164860D01*
X21322D01*
X23875Y165544D01*
X26165Y166866D01*
X28034Y168735D01*
X29350Y171015D01*
X35029D01*
X44289Y161755D01*
D02*
G37*
D12*
X59368Y50382D02*
Y53132D01*
X64200Y22500D02*
Y45551D01*
X59368Y50382D02*
X64200Y45551D01*
X70994Y76506D02*
Y83806D01*
Y76506D02*
X89600Y57900D01*
X70000Y84800D02*
X70994Y83806D01*
X44840Y187500D02*
Y287340D01*
X55000Y297500D01*
X89600Y22500D02*
Y57900D01*
X80000Y192500D02*
X85000Y187500D01*
X8690Y291190D02*
X25000Y307500D01*
X8690Y144815D02*
Y291190D01*
X18095Y126005D02*
Y135410D01*
Y126005D02*
X20000Y124100D01*
X8690Y144815D02*
X18095Y135410D01*
X55000Y297500D02*
Y362500D01*
Y270000D02*
X67300Y257700D01*
X72220Y168530D02*
Y212098D01*
X67300Y217018D02*
Y257700D01*
X72220Y168530D02*
X72300Y168450D01*
X67300Y217018D02*
X72220Y212098D01*
X50451Y146719D02*
Y161088D01*
X20000Y174900D02*
X35861D01*
X36639Y174900D01*
X50451Y161088D01*
Y146719D02*
X54669Y142500D01*
X120000D01*
X40000Y67500D02*
Y152500D01*
X120000Y142500D02*
X125000Y137500D01*
X80000Y192500D02*
Y232500D01*
X125000Y112500D02*
Y137500D01*
X153626Y95902D02*
X154244Y95284D01*
X157616D02*
X160000Y92900D01*
X154244Y95284D02*
X157616D01*
X160000Y247500D02*
X160000D01*
D13*
Y92900D02*
D03*
Y287500D02*
D03*
X89600Y22500D02*
D03*
X115000D02*
D03*
X140400D02*
D03*
X20000Y200300D02*
D03*
Y174900D02*
D03*
Y149500D02*
D03*
Y124100D02*
D03*
Y98700D02*
D03*
Y73300D02*
D03*
Y47900D02*
D03*
X25000Y422900D02*
D03*
D14*
X160000Y67500D02*
D03*
Y312900D02*
D03*
X20000Y22500D02*
D03*
X25000Y397500D02*
D03*
D15*
X90000Y363900D02*
D03*
D16*
Y271100D02*
D03*
D17*
X97700Y168450D02*
D03*
X85000Y187500D02*
D03*
X72300Y168450D02*
D03*
X70000Y110200D02*
D03*
X91590Y97500D02*
D03*
X70000Y84800D02*
D03*
X127500Y232500D02*
D03*
X32500D02*
D03*
X125000Y62500D02*
D03*
Y157500D02*
D03*
Y362500D02*
D03*
Y267500D02*
D03*
X55000D02*
D03*
Y362500D02*
D03*
X62500Y422500D02*
D03*
X157500D02*
D03*
X157500Y392500D02*
D03*
X62500D02*
D03*
X25000Y365000D02*
D03*
Y270000D02*
D03*
X160000Y152500D02*
D03*
Y247500D02*
D03*
X25000Y307500D02*
D03*
X44840Y187500D02*
D03*
X40000Y152500D02*
D03*
X80000Y232500D02*
D03*
X40000Y67500D02*
D03*
X59368Y53132D02*
D03*
X125000Y112500D02*
D03*
D18*
X64200Y22500D02*
D03*
M02*
