M48
;Layer_Color=9474304
;FILE_FORMAT=4:4
METRIC,LZ
;TYPE=PLATED
T1F00S00C0.7112
T2F00S00C0.8000
T3F00S00C0.8128
T4F00S00C0.9000
T5F00S00C1.0000
%
T01
X00114254Y00109321
X00126384Y00123844
X0013716Y0013462
X001651Y0012192
X00127834Y00178634
X0009906Y0018034
X0009652Y0015494
X00096713Y0024638
X00117033
X000762Y00254
X0006096
X0017272Y0025908
X000508Y0039878
T02
X0007806Y002032
X0017086
T03
X0003048Y001905
Y002159
X0004953Y002032
T04
X000508Y0002286
X000762
X001016
X00127
X0002286Y0007112
Y0009652
X0002032Y003429
Y003683
X0003556Y004191
X0006096
X0008636
X0011176
X0013716
X0016256
T05
X000762Y0006604
Y0009144
X0009779Y0007874
M30
