G04*
G04 #@! TF.GenerationSoftware,Altium Limited,Altium Designer,21.6.4 (81)*
G04*
G04 Layer_Physical_Order=2*
G04 Layer_Color=16711680*
%FSLAX44Y44*%
%MOMM*%
G71*
G04*
G04 #@! TF.SameCoordinates,073C951C-5C20-447E-A696-C34FD3CAFB66*
G04*
G04*
G04 #@! TF.FilePolarity,Positive*
G04*
G01*
G75*
%ADD10C,0.2540*%
%ADD11C,1.3208*%
%ADD12C,1.5000*%
%ADD13R,1.5000X1.5000*%
%ADD14R,1.5000X1.5000*%
%ADD15C,2.0320*%
%ADD16R,1.3080X1.3080*%
%ADD17C,1.3080*%
%ADD18C,1.2700*%
D10*
X109220Y167640D02*
Y206612D01*
X76435Y254235D02*
Y270057D01*
X61832Y254000D02*
X109220Y206612D01*
X74947Y271545D02*
X76435Y270057D01*
X76200Y254000D02*
X76435Y254235D01*
X60960Y254000D02*
X61832D01*
X87848Y271780D02*
X115545D01*
X86360Y239632D02*
X116840Y209152D01*
X86360Y270292D02*
X87848Y271780D01*
X117033Y246380D02*
Y270292D01*
X96713Y243647D02*
X110192Y230168D01*
X86360Y239632D02*
Y270292D01*
X96713Y243647D02*
Y246380D01*
X50800Y264105D02*
X58239Y271545D01*
X74947D01*
X50800Y249792D02*
X99060Y201532D01*
X50800Y249792D02*
Y264105D01*
X99060Y180340D02*
Y201532D01*
X116840Y160892D02*
Y209152D01*
X115545Y271780D02*
X117033Y270292D01*
X96520Y154940D02*
X109220Y167640D01*
X110192Y230168D02*
X115272D01*
X127000Y218440D01*
X90568Y134620D02*
X116840Y160892D01*
X127000Y179468D02*
X127834Y178634D01*
X127000Y179468D02*
Y218440D01*
X76200Y91440D02*
X139700Y154940D01*
Y226060D02*
X172720Y259080D01*
X139700Y154940D02*
Y226060D01*
X126384Y123844D02*
X126692Y123535D01*
Y23168D02*
X127000Y22860D01*
X126692Y23168D02*
Y123535D01*
X137160Y134620D02*
X149860Y121920D01*
X165100D01*
X24348Y134620D02*
X90568D01*
X101600Y60075D02*
X114254Y72729D01*
Y109321D01*
X101600Y22860D02*
Y60075D01*
X22860Y96520D02*
Y133132D01*
X24348Y134620D01*
X43180Y91440D02*
X76200D01*
X22860Y71120D02*
X43180Y91440D01*
X7620Y191988D02*
X9108Y190500D01*
X7620Y191988D02*
Y397292D01*
X9108Y190500D02*
X30480D01*
X7620Y397292D02*
X9108Y398780D01*
X50800D01*
X162560Y368300D02*
Y419100D01*
Y269240D02*
Y368300D01*
X20320D02*
X162560D01*
Y269240D02*
X172720Y259080D01*
X50800Y398780D02*
X135672D01*
X137160Y400268D02*
Y419100D01*
X135672Y398780D02*
X137160Y400268D01*
D11*
X30480Y190500D02*
D03*
X49530Y203200D02*
D03*
X30480Y215900D02*
D03*
D12*
X162560Y419100D02*
D03*
X137160D02*
D03*
X111760D02*
D03*
X86360D02*
D03*
X60960D02*
D03*
X20320Y368300D02*
D03*
X22860Y71120D02*
D03*
X76200Y22860D02*
D03*
X101600D02*
D03*
X127000D02*
D03*
D13*
X35560Y419100D02*
D03*
X50800Y22860D02*
D03*
D14*
X20320Y342900D02*
D03*
X22860Y96520D02*
D03*
D15*
X76200Y66040D02*
D03*
X97790Y78740D02*
D03*
X76200Y91440D02*
D03*
D16*
X78060Y203200D02*
D03*
D17*
X170860D02*
D03*
D18*
X76200Y254000D02*
D03*
X117033Y246380D02*
D03*
X96713D02*
D03*
X60960Y254000D02*
D03*
X99060Y180340D02*
D03*
X127834Y178634D02*
D03*
X126384Y123844D02*
D03*
X137160Y134620D02*
D03*
X96520Y154940D02*
D03*
X114254Y109321D02*
D03*
X165100Y121920D02*
D03*
X50800Y398780D02*
D03*
X172720Y259080D02*
D03*
M02*
