M48
;Layer_Color=9474304
;FILE_FORMAT=2:5
INCH,LZ
;TYPE=PLATED
T1F00S00C0.02800
T2F00S00C0.03150
T3F00S00C0.03200
T4F00S00C0.03543
T5F00S00C0.03937
%
T01
X0044982Y004304
X0049757Y0048757
X0054Y0053
X0065Y0048
X0050328Y0070328
X0039Y0071
X0038Y0061
X0038076Y0097
X0046076
X003Y01
X0024
X0068Y0102
X002Y0157
T02
X0030732Y008
X0067268
T03
X0012Y0075
Y0085
X00195Y008
T04
X002Y0009
X003
X004
X005
X0009Y0028
Y0038
X0008Y0135
Y0145
X0014Y0165
X0024
X0034
X0044
X0054
X0064
T05
X003Y0026
Y0036
X00385Y0031
M30
